<svg id="Layer_1" data-name="Layer 1" xmlns="http://www.w3.org/2000/svg" viewBox="0 0 194 68"><defs><style>.cls-1{fill:#18c2bd;}.cls-2{fill:#fff;}</style></defs><title>Artboard 1</title><circle class="cls-1" cx="33.2" cy="34" r="33.2"/><path class="cls-2" d="M10.49,39.27h6.82V34.89H20.9v4.38H31.69v3.21H10.49ZM29.2,24.43v3a30.53,30.53,0,0,1-.88,7.75,11.81,11.81,0,0,1-.87,2.46h-3.4A13.47,13.47,0,0,0,25.31,33H15.09V30.26H25.64a17.16,17.16,0,0,0,0-2.85H13.56v-3Z"/><path class="cls-2" d="M42.6,34.92a20.51,20.51,0,0,0,.87-3.1h-8.3V29.08H43.8l0-2.3H34.46v-3h12.9v3.8a23.07,23.07,0,0,1-1.31,7.32h2.87V38H42.35v7.53H38.87V38h-5V34.92Zm7.58,10.57V43H46V40h4.16V22.46h3.73v23Z"/><path class="cls-1" d="M148.91,12.54a10.54,10.54,0,0,1-1.32,4.67h-2.13a7.65,7.65,0,0,0,1.42-4.45h-4V11.13h6.07Zm2.47,5.93A1.56,1.56,0,0,1,153.15,20v1.56a1.5,1.5,0,0,1-1.63,1.48h-6a1.63,1.63,0,0,1-1.67-1.47V20a1.62,1.62,0,0,1,1.8-1.56Zm-4.75,1.72c-.59,0-.79.23-.78.46l0,.39c0,.43.35.4.76.4h4.08c.37,0,.67-.08.67-.43v-.36c0-.35-.23-.46-.64-.46Zm6.23-4.9v2.5h-1.8V10.31h1.8V13.5h1.71v1.79Z"/><path class="cls-1" d="M162.84,14.73v1.88h-7.05V10.9h1.87v3.83Zm2.71,3.74v4.59h-8.64V18.47ZM163.87,20h-5.24v1.43h5.24Zm3.36-5.35h-1.71v2.64h-1.8v-7h1.8V12.9h1.71Z"/><path class="cls-1" d="M174.86,18.73V23h-2V18.73h-4.72V16.91h11.44v1.82Zm.64-2.61a15.13,15.13,0,0,0,.68-2.56c.07-.4.12-.8.15-1.18H169V10.61h9.34v1.77a11.14,11.14,0,0,1-.43,2.44c-.12.44-.26.86-.41,1.3Z"/><path class="cls-1" d="M150.76,34.61v1.75h-7.31v-6h2v4.26ZM154,37.44V42h-9V37.44Zm-2,1.44h-5.07v1.66H152Zm2-9.54v7.39h-2V33.32h-2.51V31.57h2.51V29.34Z"/><path class="cls-1" d="M162.13,30.37V39.2H156V30.37h1.76v2.48h2.78V30.37Zm-1.64,6.86V34.82h-2.78v2.41Zm6.39-7.92V42.06h-2V35.5h-2.24V33.38h2.24V29.31Z"/><path class="cls-1" d="M177.05,34.44V36h-4.19V37.7h-1.92V36h-2.39V34.44Zm-3.08-5c1.25,0,2,.65,2,1.75V32a1.79,1.79,0,0,1-2,1.78h-2.46c-1.1,0-2.11-.47-2.11-1.75v-.88c0-1.11.87-1.71,2.14-1.71ZM170.44,42V38.24h2v2.11h7.67V42Zm3.63-10.47a.67.67,0,0,0-.74-.68H172c-.46,0-.78.24-.78.67v.31a.66.66,0,0,0,.74.7h1.35a.66.66,0,0,0,.72-.7Zm3.68,7.08v-.63h-2.86V36.56h2.86V29.31h2v9.26Z"/><path class="cls-1" d="M149.7,48.84v6.4h-6.25v-6.4h2v2h2.33v-2Zm-5.18,11.78v-4h1.91v2.27h7.14v1.77Zm3.21-7V52.41H145.4v1.24Zm7-1.78v1.69h-1.48v3.06h-1.9V48.31h1.9v3.56Z"/><path class="cls-1" d="M162.9,51.23h-2.42a4.77,4.77,0,0,0,2.4,2.23v1.72a6.35,6.35,0,0,1-3.39-2.45c-.72,1.51-3.17,2.59-3.58,2.76V53.78a4.56,4.56,0,0,0,2.48-2.55h-2.48V49.79h2.33V48.36h2.33v1.43h2.33Zm-5.81,9.54V56.58H159V59h7.3v1.73Zm10.55-8.9v1.69H166v3.21h-2V48.31h2v3.56Z"/><path class="cls-1" d="M174.78,51.34c0,2.12-1.46,4.24-2.92,5.77a20.88,20.88,0,0,1-2.92,2.57V57.26c2.1-1.71,3.71-4.17,3.79-5.71h-4.18V49.67h6.23Zm5.57,3.19h-1.89v6.39h-2V48.49h2v4.09h1.89Z"/><path class="cls-1" d="M187.11,51.22c0,4.13-4.29,7.64-5.42,8.47V57.15A9.14,9.14,0,0,0,185,51.41h-3.71V49.46h5.85Zm3.25-2.91V61.06h-1.78v-6h-1.71v-2h1.71V48.31Zm2.74,12.75h-1.78V48.31h1.78Z"/><path class="cls-1" d="M93.94,32.77A67.22,67.22,0,0,1,75.83,43.92c-.24.11-.42.17-.53,0l-.65-.64a.31.31,0,0,1,0-.48C85,37,93.41,29.11,98,21.68c-3.6.11-11,.23-12.63.41a19.64,19.64,0,0,0-4.48.82,17.08,17.08,0,0,1-4.25-2.53c-.17-.24-.23-.36-.17-.59l.35-.59a35.42,35.42,0,0,0,4.78.35c2.18,0,14.16-.18,17.28-.41l1.89-.89a1.74,1.74,0,0,1,1.06,0,13.06,13.06,0,0,1,2.54,1.24.46.46,0,0,1,.12.71l-1.24,1.65a39.53,39.53,0,0,1-7.2,9l5.72,4.19,2.78.88a21.27,21.27,0,0,1,2.59,3.36,1.74,1.74,0,0,1,.36,1.36,1.72,1.72,0,0,1-1.71,1.12,3.07,3.07,0,0,1-1.3-.71ZM83.5,10.53a73.73,73.73,0,0,0,13.68,1.12.75.75,0,0,1,.83.53,3.07,3.07,0,0,1-.18,2.06.76.76,0,0,1-.77.36c-2.83,0-6.9.11-9.32.29a1.62,1.62,0,0,1-1.06-.23,13.37,13.37,0,0,1-3.54-3.07.7.7,0,0,1-.06-.59Zm31.38,46.78a37,37,0,0,1,5.55.41.93.93,0,0,1,.76.83,3,3,0,0,1-.65,2.12,1.2,1.2,0,0,1-.76.29l-24.66.12c-3.84,0-5.19-1.35-5.19-4.6v-8a10.59,10.59,0,0,0-4.13-1.71l.29-1.3c.06-.3.24-.35.59-.35a39.08,39.08,0,0,1,6.79.53,1,1,0,0,1,.88,1.12l-.12,2.59V57c0,1.06.42,1.54,1.48,1.54,3.65.05,13.92-.06,17.22-.18Zm7.73-30.15a26.57,26.57,0,0,1,5.19.3,1.11,1.11,0,0,1,.82,1,2.46,2.46,0,0,1-.7,2.12,2.09,2.09,0,0,1-1.12.3l-10.27.18V36.9a48,48,0,0,1-1.36,11.68H112.7c-.24-2.36-.36-7.5-.36-10.21v-27a11.26,11.26,0,0,0-5-3l.47-1.41c.06-.18.18-.3.65-.3A27.21,27.21,0,0,1,116,8.17c.53.17.71.59.71,1.18l-.18,3.06V28.46l4.19-.18Z"/></svg>