<svg id="Layer_1" data-name="Layer 1" xmlns="http://www.w3.org/2000/svg" viewBox="0 0 194 68"><defs><style>.cls-1{fill:#18c2bd}.cls-2{fill:#fff}</style></defs><circle class="cls-1" cx="33.2" cy="34" r="33.2"/><path class="cls-2" d="M10.49 39.27h6.82v-4.38h3.59v4.38h10.79v3.21h-21.2zM29.2 24.43v3a30.53 30.53 0 01-.88 7.75 11.81 11.81 0 01-.87 2.46h-3.4A13.47 13.47 0 0025.31 33H15.09v-2.74h10.55a17.16 17.16 0 000-2.85H13.56v-3zM42.6 34.92a20.51 20.51 0 00.87-3.1h-8.3v-2.74h8.63v-2.3h-9.34v-3h12.9v3.8a23.07 23.07 0 01-1.31 7.32h2.87V38h-6.57v7.53h-3.48V38h-5v-3.08zm7.58 10.57V43H46v-3h4.16V22.46h3.73v23z"/><text transform="translate(142.54 21.36)" font-size="15.14" font-family="BMHANNAProOTF-KSCpc-EUC-H,BM HANNA Pro OTF" fill="#18c2bd">강남구<tspan x="0" y="19">넘버원</tspan><tspan x="0" y="38">반찬가게</tspan></text><path class="cls-1" d="M93.94 32.77a67.22 67.22 0 01-18.11 11.15c-.24.11-.42.17-.53 0l-.65-.64a.31.31 0 010-.48C85 37 93.41 29.11 98 21.68c-3.6.11-11 .23-12.63.41a19.64 19.64 0 00-4.48.82 17.08 17.08 0 01-4.25-2.53c-.17-.24-.23-.36-.17-.59l.35-.59a35.42 35.42 0 004.78.35c2.18 0 14.16-.18 17.28-.41l1.89-.89a1.74 1.74 0 011.06 0 13.06 13.06 0 012.54 1.24.46.46 0 01.12.71l-1.24 1.65a39.53 39.53 0 01-7.2 9l5.72 4.19 2.78.88a21.27 21.27 0 012.59 3.36 1.74 1.74 0 01.36 1.36 1.72 1.72 0 01-1.71 1.12 3.07 3.07 0 01-1.3-.71zM83.5 10.53a73.73 73.73 0 0013.68 1.12.75.75 0 01.83.53 3.07 3.07 0 01-.18 2.06.76.76 0 01-.77.36c-2.83 0-6.9.11-9.32.29a1.62 1.62 0 01-1.06-.23 13.37 13.37 0 01-3.54-3.07.7.7 0 01-.06-.59zm31.38 46.78a37 37 0 015.55.41.93.93 0 01.76.83 3 3 0 01-.65 2.12 1.2 1.2 0 01-.76.29l-24.66.12c-3.84 0-5.19-1.35-5.19-4.6v-8a10.59 10.59 0 00-4.13-1.71l.29-1.3c.06-.3.24-.35.59-.35a39.08 39.08 0 016.79.53 1 1 0 01.88 1.12l-.12 2.59V57c0 1.06.42 1.54 1.48 1.54 3.65.05 13.92-.06 17.22-.18zm7.73-30.15a26.57 26.57 0 015.19.3 1.11 1.11 0 01.82 1 2.46 2.46 0 01-.7 2.12 2.09 2.09 0 01-1.12.3l-10.27.18v5.84a48 48 0 01-1.36 11.68h-2.47c-.24-2.36-.36-7.5-.36-10.21v-27a11.26 11.26 0 00-5-3l.47-1.41c.06-.18.18-.3.65-.3A27.21 27.21 0 01116 8.17c.53.17.71.59.71 1.18l-.18 3.06v16.05l4.19-.18z"/></svg>